<svg id="broad" xmlns="http://www.w3.org/2000/svg" viewBox="0 0 70.61 66.93"><title>broad</title><g id="broad-2" data-name="broad"><rect x="83.13" y="47.38" width="8" height="15" rx="4" transform="translate(-39.39 54.59) rotate(-46.4)" fill="#78849b" stroke="#662d91" stroke-miterlimit="10"/><ellipse cx="90.87" cy="58.27" rx="3" ry="2.5" transform="translate(-43.36 42.15) rotate(-37.67)" fill="#919db3" stroke="#662d91" stroke-miterlimit="10"/><rect x="53.26" y="76.6" width="8" height="15" rx="4" transform="translate(-69.82 42.03) rotate(-46.4)" fill="#78849b" stroke="#662d91" stroke-miterlimit="10"/><rect x="19" y="47" width="86" height="24" rx="12" transform="translate(-50.27 31.99) rotate(-42.59)" fill="#b8c4dd" stroke="#662d91" stroke-miterlimit="10"/><ellipse cx="61" cy="87.5" rx="3" ry="2.5" transform="translate(-67.45 29.99) rotate(-37.67)" fill="#919db3" stroke="#662d91" stroke-miterlimit="10"/><circle cx="14.31" cy="45.47" r="1.5" fill="#e3e9f6"/><circle cx="20.81" cy="51.97" r="1.5" fill="#e3e9f6"/><circle cx="26.81" cy="46.97" r="1.5" fill="#e3e9f6"/><circle cx="19.81" cy="40.97" r="1.5" fill="#e3e9f6"/><circle cx="45.81" cy="16.97" r="1.5" fill="#e3e9f6"/><circle cx="58.81" cy="16.97" r="1.5" fill="#e3e9f6"/><circle cx="51.81" cy="11.97" r="1.5" fill="#e3e9f6"/><circle cx="52.81" cy="22.97" r="1.5" fill="#e3e9f6"/><rect x="66.5" y="74.5" width="3" height="6" rx="1.5" transform="translate(-61.2 40.93) rotate(-42.59)" fill="#662d91" stroke="#662d91" stroke-miterlimit="10"/><rect x="72.56" y="68.57" width="3" height="6" rx="1.5" transform="translate(-55.59 43.47) rotate(-42.59)" fill="#662d91" stroke="#662d91" stroke-miterlimit="10"/><rect x="78.56" y="62.57" width="3" height="6" rx="1.5" transform="translate(-49.95 45.94) rotate(-42.59)" fill="#662d91" stroke="#662d91" stroke-miterlimit="10"/></g></svg>